<svg width="138" height="33" viewBox="0 0 138 33" fill="none" xmlns="http://www.w3.org/2000/svg">
<path d="M30.9231 4.06859C29.4776 2.29207 27.5364 1.3424 25.2743 1.03905C25.1871 0.953023 25.0887 0.932649 24.9777 0.987547C24.7865 0.961513 24.5946 0.934913 24.4033 0.908313C24.3427 1.01754 24.2822 1.12734 24.2216 1.23657C24.1611 1.34579 24.1005 1.45502 24.0383 1.56312C24.1 1.45446 24.1611 1.34579 24.2216 1.23657C24.2822 1.12734 24.3422 1.01811 24.4033 0.908313C24.3388 0.877752 24.2765 0.82908 24.2092 0.819458C20.1841 0.251808 16.1466 -0.150019 12.0752 0.0537245C10.2833 0.143145 8.52267 0.453287 6.82481 1.05546C1.66219 2.88519 -0.663874 6.78573 0.163549 12.1827C0.448224 14.0378 1.09511 15.7878 1.77934 17.5111C2.83258 20.1626 3.39288 22.8616 3.07481 25.7169C3.0267 26.1481 3.03746 26.5856 3.01425 27.0197C3.00407 27.2138 2.95426 27.4345 3.12631 27.5636C3.926 28.1646 4.73814 28.7498 5.63631 29.4069C5.66574 29.0628 5.68951 28.8771 5.69687 28.6915C5.78346 26.5912 5.92212 24.491 5.93061 22.3902C5.93513 21.2453 6.33243 20.329 7.03818 19.4919C8.53003 17.7216 10.22 16.1647 12.0401 14.7362C14.0667 13.1453 16.15 11.6416 18.381 10.3484C18.4891 10.2856 18.6668 10.2607 18.6142 10.0224C15.9151 9.76208 13.46 10.4656 11.177 11.8878C9.54308 12.9054 8.17461 14.2354 6.79312 15.5535C6.66578 15.6746 6.5441 15.9185 6.32904 15.8138C6.1202 15.7119 6.2283 15.4663 6.23396 15.2875C6.29225 13.5245 6.36186 11.7622 6.42468 9.99921C6.44053 9.5555 6.56447 9.14462 6.79368 8.76996C8.0484 6.71838 9.86285 5.34821 12.1006 4.55022C15.4013 3.3736 18.6396 3.51396 21.7728 5.16145C24.8878 7.49034 25.9484 10.0598 24.9568 13.4278C24.0473 16.5173 22.5096 19.1778 19.1756 20.2548C18.4874 20.4773 17.7811 20.6431 17.0799 20.8242C16.1704 21.0591 15.2439 21.2317 14.3633 21.5746C12.9914 22.1095 12.1414 23.0603 11.9257 24.5487C11.8358 25.169 11.6886 25.7814 11.5766 26.3988C11.2709 28.0854 10.9495 29.7696 10.7746 31.4766C10.7537 31.682 10.5731 32.0301 10.937 32.0799C12.357 32.2734 13.7911 32.3923 15.1313 31.7295C17.3906 30.6123 19.1903 28.8839 20.9674 27.1544C24.9925 23.2374 27.7526 18.4523 30.2405 13.4826C30.987 11.9919 31.3175 10.3982 31.7482 8.81184C32.2287 7.04211 32.0572 5.46423 30.9225 4.07029L30.9231 4.06859Z" fill="#30947F"/>
<path d="M46.5634 15.498H49.2336C50.0454 15.498 50.6791 15.2915 51.1348 14.8785C51.6048 14.4513 51.8398 13.8816 51.8398 13.1696C51.8398 12.4433 51.6048 11.8665 51.1348 11.4393C50.6791 11.012 50.0454 10.7984 49.2336 10.7984H46.5634V15.498ZM49.6182 17.7623H46.5634V23.6796H44V8.53404H49.6182C51.0565 8.53404 52.2172 8.9684 53.1001 9.83712C53.9973 10.7058 54.4459 11.8095 54.4459 13.1482C54.4459 14.5011 53.9973 15.6119 53.1001 16.4806C52.2172 17.3351 51.0565 17.7623 49.6182 17.7623Z" fill="black"/>
<path d="M59.0935 23.6796H56.6368V13.2764H59.0935V23.6796ZM56.7223 10.7557C56.409 10.4424 56.2523 10.065 56.2523 9.6235C56.2523 9.18202 56.409 8.80463 56.7223 8.49132C57.0356 8.16377 57.413 8 57.8545 8C58.3102 8 58.6947 8.15665 59.008 8.46996C59.3213 8.78327 59.478 9.16778 59.478 9.6235C59.478 10.065 59.3213 10.4424 59.008 10.7557C58.6947 11.069 58.3102 11.2256 57.8545 11.2256C57.413 11.2256 57.0356 11.069 56.7223 10.7557Z" fill="black"/>
<path d="M66.8189 15.2417C66.0214 15.2417 65.345 15.5336 64.7896 16.1175C64.2341 16.6871 63.9564 17.4704 63.9564 18.4673C63.9564 19.4784 64.2341 20.2759 64.7896 20.8598C65.3592 21.4437 66.0499 21.7356 66.8616 21.7356C67.588 21.7356 68.1647 21.5434 68.592 21.1589C69.0334 20.7601 69.3254 20.3115 69.4678 19.8131L71.6467 20.6035C71.3619 21.5291 70.8065 22.3267 69.9805 22.996C69.1687 23.6653 68.1291 24 66.8616 24C65.3378 24 64.0561 23.4731 63.0165 22.4192C61.9912 21.3654 61.4785 20.0481 61.4785 18.4673C61.4785 16.8723 61.984 15.555 62.9952 14.5154C64.0205 13.4757 65.288 12.9559 66.7976 12.9559C68.0935 12.9559 69.1474 13.2906 69.9591 13.9599C70.7851 14.6293 71.3191 15.4339 71.5612 16.3738L69.3396 17.1856C69.1972 16.6444 68.9195 16.1887 68.5065 15.8184C68.1078 15.4339 67.5452 15.2417 66.8189 15.2417Z" fill="black"/>
<path d="M83.5883 13.2764L79.3159 17.6769L83.6737 23.6796H80.6404L77.5856 19.4286L76.3039 20.7744V23.6796H73.8473V8.21362H76.3039V17.4846L80.2986 13.2764H83.5883Z" fill="black"/>
<path d="M85.6806 8.53404H90.8929C92.317 8.53404 93.442 8.91144 94.268 9.66622C95.094 10.421 95.507 11.4036 95.507 12.6142C95.507 13.3974 95.3005 14.081 94.8875 14.6649C94.4745 15.2345 93.9334 15.6404 93.264 15.8825C94.0758 16.0961 94.7309 16.5305 95.2293 17.1856C95.7277 17.8407 95.977 18.6097 95.977 19.4927C95.977 20.7174 95.5426 21.7214 94.6739 22.5047C93.8052 23.2879 92.673 23.6796 91.2774 23.6796H85.6806V8.53404ZM88.2226 14.9426H90.5511C91.2916 14.9426 91.8755 14.7503 92.3027 14.3658C92.73 13.9813 92.9436 13.4686 92.9436 12.8278C92.9436 12.1727 92.7229 11.66 92.2814 11.2897C91.8541 10.9052 91.256 10.7129 90.487 10.7129H88.2226V14.9426ZM88.2226 21.5007H90.8288C91.5978 21.5007 92.2102 21.3084 92.6659 20.9239C93.1358 20.5251 93.3708 19.9911 93.3708 19.3218C93.3708 18.6524 93.1501 18.1184 92.7086 17.7196C92.2814 17.3066 91.6832 17.1001 90.9142 17.1001H88.2226V21.5007Z" fill="black"/>
<path d="M97.6974 20.8598C97.6974 19.9769 97.9823 19.2719 98.5519 18.745C99.1358 18.2038 99.8977 17.862 100.838 17.7196L103.508 17.3138C104.021 17.2425 104.277 16.9933 104.277 16.5661C104.277 16.0961 104.113 15.7187 103.786 15.4339C103.458 15.1348 102.967 14.9853 102.312 14.9853C101.685 14.9853 101.187 15.1633 100.816 15.5194C100.446 15.8611 100.232 16.3097 100.175 16.8652L97.911 16.3525C98.0107 15.4125 98.4593 14.615 99.2568 13.9599C100.054 13.2906 101.065 12.9559 102.29 12.9559C103.8 12.9559 104.911 13.3191 105.623 14.0454C106.349 14.7717 106.712 15.7045 106.712 16.8438V22.0134C106.712 22.6969 106.755 23.2523 106.84 23.6796H104.533C104.462 23.466 104.426 23.0245 104.426 22.3551C103.743 23.4517 102.675 24 101.222 24C100.168 24 99.3138 23.6938 98.6587 23.0814C98.0179 22.4548 97.6974 21.7143 97.6974 20.8598ZM101.692 22.0561C102.461 22.0561 103.081 21.8496 103.551 21.4366C104.035 21.0093 104.277 20.3186 104.277 19.3645V18.8945L101.564 19.3004C100.638 19.4571 100.175 19.927 100.175 20.7103C100.175 21.0806 100.311 21.401 100.581 21.6716C100.852 21.9279 101.222 22.0561 101.692 22.0561Z" fill="black"/>
<path d="M117.419 23.6796H108.917V21.522L114.194 15.4553H109.024V13.2764H117.312V15.3698L111.972 21.5007H117.419V23.6796Z" fill="black"/>
<path d="M119.247 20.8598C119.247 19.9769 119.532 19.2719 120.101 18.745C120.685 18.2038 121.447 17.862 122.387 17.7196L125.057 17.3138C125.57 17.2425 125.826 16.9933 125.826 16.5661C125.826 16.0961 125.663 15.7187 125.335 15.4339C125.008 15.1348 124.516 14.9853 123.861 14.9853C123.235 14.9853 122.736 15.1633 122.366 15.5194C121.996 15.8611 121.782 16.3097 121.725 16.8652L119.461 16.3525C119.56 15.4125 120.009 14.615 120.806 13.9599C121.604 13.2906 122.615 12.9559 123.84 12.9559C125.349 12.9559 126.46 13.3191 127.172 14.0454C127.899 14.7717 128.262 15.7045 128.262 16.8438V22.0134C128.262 22.6969 128.304 23.2523 128.39 23.6796H126.083C126.012 23.466 125.976 23.0245 125.976 22.3551C125.292 23.4517 124.224 24 122.772 24C121.718 24 120.863 23.6938 120.208 23.0814C119.567 22.4548 119.247 21.7143 119.247 20.8598ZM123.242 22.0561C124.011 22.0561 124.63 21.8496 125.1 21.4366C125.584 21.0093 125.826 20.3186 125.826 19.3645V18.8945L123.113 19.3004C122.188 19.4571 121.725 19.927 121.725 20.7103C121.725 21.0806 121.86 21.401 122.131 21.6716C122.401 21.9279 122.772 22.0561 123.242 22.0561Z" fill="black"/>
<path d="M137.345 13.2123V15.733C137.06 15.6903 136.79 15.6689 136.534 15.6689C134.668 15.6689 133.735 16.6871 133.735 18.7236V23.6796H131.257V13.2764H133.671V14.9426C133.913 14.3872 134.305 13.9528 134.846 13.6395C135.387 13.312 136 13.1482 136.683 13.1482C136.911 13.1482 137.132 13.1696 137.345 13.2123Z" fill="black"/>
</svg>
